<svg xmlns="http://www.w3.org/2000/svg" >
<symbol id="logo" width="67" height="70" viewBox="0 0 67 70"> 
    <g id="logo.svg" transform="translate(-928 -285)">
        <g id="Rectangle_1" data-name="Rectangle 1" fill="none">
        <path d="M990.674,352.857l-28.814-55-28.814,55Z" stroke="none"/>
        <path d="M 987.3687744140625 350.8569030761719 L 961.860107421875 302.1693725585938 L 936.3515014648438 350.8569030761719 L 987.3687744140625 350.8569030761719 M 990.6744995117188 352.8569030761719 L 933.0457763671875 352.8569030761719 L 961.860107421875 297.8598937988281 L 990.6744995117188 352.8569030761719 Z" stroke="none" fill="#fff"/>
        </g>
        <g id="Ellipse_1" data-name="Ellipse 1" transform="translate(928 285)" fill="none" stroke="#f6f7fc" stroke-width="2">
        <ellipse cx="33.5" cy="33.21" rx="33.5" ry="33.21" stroke="none"/>
        <ellipse cx="33.5" cy="33.21" rx="32.5" ry="32.21" fill="none"/>
        </g>
        <ellipse id="Ellipse_1_copy_8" data-name="Ellipse 1 copy 8" cx="3.6" cy="3.57" rx="3.6" ry="3.57" transform="translate(958.26 347.86)" fill="#fff"/>
        <ellipse id="Ellipse_1_copy_9" data-name="Ellipse 1 copy 9" cx="3.6" cy="3.57" rx="3.6" ry="3.57" transform="translate(984.92 347.86)" fill="#fff"/>
        <ellipse id="Ellipse_1_copy_11" data-name="Ellipse 1 copy 11" cx="3.6" cy="3.57" rx="3.6" ry="3.57" transform="translate(929.44 347.86)" fill="#fff"/>
    </g>
</symbol>


<symbol id="scroll_icon" width="22.997" height="37.009" viewBox="0 0 22.997 37.009">
    <path id="scroll.svg" d="M950,945.491V931.416a11.476,11.476,0,0,1,10.544-11.424h1.908A11.48,11.48,0,0,1,973,931.415V945.49a11.5,11.5,0,1,1-23,0Zm1.908-14.075V945.49a9.59,9.59,0,1,0,19.181,0V931.415a9.59,9.59,0,1,0-19.181,0Zm7.934,0a1.66,1.66,0,1,1,1.66,1.661A1.659,1.659,0,0,1,959.84,931.42Z" transform="translate(-949.999 -919.993)" fill="#fff"/>
</symbol>


<symbol id="design" width="79.982" height="83.029" viewBox="0 0 79.982 83.029">
    <path id="Shape_2" data-name="Shape 2" d="M994.956,2434.989H983.032a2.017,2.017,0,0,0-2.025,2.025v4.163H932.86v-4.163a2.017,2.017,0,0,0-2.025-2.025H919.024a2.017,2.017,0,0,0-2.025,2.025v12.263a2.017,2.017,0,0,0,2.025,2.025h11.924a2.017,2.017,0,0,0,2.025-2.025v-4.163h22.161c-.225,4.95-12.262,28.239-19.911,41.965a2.083,2.083,0,0,0,.45,2.475c6.862,5.85,8.549,11.588,9,14.513h-2.587a2.017,2.017,0,0,0-2.025,2.025v9.9a2.016,2.016,0,0,0,2.025,2.025h29.923a2.016,2.016,0,0,0,2.025-2.025v-9.9a2.017,2.017,0,0,0-2.025-2.025H969.42c.45-2.925,2.137-8.663,9-14.513a2.054,2.054,0,0,0,.45-2.475c-7.649-13.726-19.686-37.127-19.911-41.965h22.048v4.163a2.017,2.017,0,0,0,2.025,2.025h11.924a2.017,2.017,0,0,0,2.025-2.025v-12.263A2.017,2.017,0,0,0,994.956,2434.989Zm-66.033,12.263h-7.987v-8.326h7.987Zm28.123,32.964a2.588,2.588,0,1,1-2.587,2.588A2.7,2.7,0,0,1,957.046,2480.216Zm13.049,33.639H944.11v-5.963H970.1Zm-4.612-9.9H948.609c-.45-3.263-2.137-9.788-9.224-16.426,2.7-4.95,10.8-19.8,15.636-30.827v19.914a6.451,6.451,0,0,0-4.5,6.188,6.525,6.525,0,1,0,8.549-6.188V2456.59c4.949,11.025,12.936,25.876,15.636,30.939C967.62,2494.167,965.933,2500.692,965.483,2503.955Zm27.56-56.7h-7.987v-8.213h7.987Z" transform="translate(-916.999 -2434.989)" fill="#3c3c3c"/>
</symbol>

<symbol id="development" width="79.002" height="76.003" viewBox="0 0 79.002 76.003">
    <path id="Shape_3" data-name="Shape 3" d="M920.077,2886a2.09,2.09,0,0,1-2.079-2.1v-71.806a2.089,2.089,0,0,1,2.079-2.1h74.844a2.089,2.089,0,0,1,2.079,2.1V2883.9a2.09,2.09,0,0,1-2.079,2.1Zm2.079-4.2h70.686v-56.72H922.156Zm70.686-60.917v-6.69H922.156v6.69Zm-38.4,42.479a1.838,1.838,0,0,1-1.312-2.234l4.623-18.281a1.82,1.82,0,1,1,3.525.908l-4.623,18.281a1.816,1.816,0,0,1-2.213,1.325Zm12.235-4.723a1.849,1.849,0,0,1,0-2.6l4.365-4.406-4.375-4.416a1.849,1.849,0,0,1,0-2.6,1.808,1.808,0,0,1,2.572,0l5.661,5.713a1.847,1.847,0,0,1,0,2.6l-5.652,5.7a1.8,1.8,0,0,1-2.571,0Zm-20.917,0-5.66-5.713a1.849,1.849,0,0,1,0-2.6l5.65-5.7a1.806,1.806,0,0,1,2.572,0,1.847,1.847,0,0,1,0,2.6l-4.364,4.407,4.374,4.415a1.848,1.848,0,0,1,0,2.6,1.806,1.806,0,0,1-2.572,0Zm-11.328-41.1a1.45,1.45,0,1,1,1.45,1.47A1.46,1.46,0,0,1,934.43,2817.54Zm-4.351,0a1.45,1.45,0,1,1,1.45,1.47A1.46,1.46,0,0,1,930.08,2817.54Zm-4.35,0a1.45,1.45,0,1,1,1.45,1.47A1.46,1.46,0,0,1,925.73,2817.54Z" transform="translate(-917.998 -2809.994)" fill="#3c3c3c"/>
</symbol>

<symbol id="product_managment" width="78.991" height="90.987" viewBox="0 0 78.991 90.987">
    <path id="Shape_4" data-name="Shape 4" d="M920.081,3230a2.078,2.078,0,0,1-2.092-2.079v-75.438a2.084,2.084,0,0,1,2.092-2.078h20.467a6.134,6.134,0,0,1,6.131-5.686h5.995a5.812,5.812,0,0,1,11.623,0h5.985a6.137,6.137,0,0,1,6.141,5.686h18.466a2.085,2.085,0,0,1,2.092,2.078v75.438a2.079,2.079,0,0,1-2.092,2.079Zm2.093-4.157h70.621v-71.281H976.442v2.619a2.079,2.079,0,0,1-2.093,2.079h-31.73a2.079,2.079,0,0,1-2.093-2.079v-2.619H922.173Zm22.538-75h0v4.261h27.546v-4.261a1.969,1.969,0,0,0-1.977-1.965h-6.539a3.627,3.627,0,0,1-3.63-3.606v-.478a1.627,1.627,0,0,0-3.254,0v.478a3.629,3.629,0,0,1-3.641,3.606h-6.539A1.968,1.968,0,0,0,944.711,3150.842Zm-6.064,65.838-3.1-3.077a1.552,1.552,0,0,1,0-2.205,1.577,1.577,0,0,1,2.219,0l1.988,1.975,5.087-5.052a1.576,1.576,0,0,1,2.219,0,1.551,1.551,0,0,1,0,2.2l-6.195,6.154a1.577,1.577,0,0,1-2.22,0Zm14.99-2.621a1.559,1.559,0,1,1,0-3.119h18.674a1.559,1.559,0,1,1,0,3.119Zm-14.99-10.721-3.1-3.077a1.552,1.552,0,0,1,0-2.2,1.577,1.577,0,0,1,2.219,0l1.988,1.975,5.087-5.052a1.575,1.575,0,0,1,2.219,0,1.552,1.552,0,0,1,0,2.2l-6.195,6.154a1.577,1.577,0,0,1-2.22,0Zm14.99-2.621a1.559,1.559,0,1,1,0-3.117h18.674a1.559,1.559,0,1,1,0,3.117ZM938.647,3190l-3.1-3.077a1.552,1.552,0,0,1,0-2.205,1.577,1.577,0,0,1,2.219,0l1.988,1.975,5.087-5.052a1.576,1.576,0,0,1,2.219,0,1.551,1.551,0,0,1,0,2.205L940.867,3190a1.577,1.577,0,0,1-2.22,0Zm14.99-2.619a1.559,1.559,0,1,1,0-3.118h18.674a1.559,1.559,0,1,1,0,3.118Zm-14.99-10.721-3.1-3.077a1.552,1.552,0,0,1,0-2.205,1.577,1.577,0,0,1,2.219,0l1.988,1.976,5.087-5.052a1.576,1.576,0,0,1,2.219,0,1.552,1.552,0,0,1,0,2.2l-6.195,6.154a1.577,1.577,0,0,1-2.22,0Zm14.99-2.62a1.559,1.559,0,1,1,0-3.119h18.674a1.559,1.559,0,1,1,0,3.119Zm2.832-22.9a2.01,2.01,0,1,1,2.011,2A2.005,2.005,0,0,1,956.47,3151.139Z" transform="translate(-917.989 -3139.013)" fill="#3c3c3c"/>
</symbol>

<symbol id="logo_dark" width="35" height="37" viewBox="0 0 67 70"> 
    <g id="logo.svg" transform="translate(-928 -285)">
        <g id="Rectangle_1" data-name="Rectangle 1" fill="none">
        <path d="M990.674,352.857l-28.814-55-28.814,55Z" stroke="none"/>
        <path d="M 987.3687744140625 350.8569030761719 L 961.860107421875 302.1693725585938 L 936.3515014648438 350.8569030761719 L 987.3687744140625 350.8569030761719 M 990.6744995117188 352.8569030761719 L 933.0457763671875 352.8569030761719 L 961.860107421875 297.8598937988281 L 990.6744995117188 352.8569030761719 Z" stroke="none" fill="#3C3C3C"/>
        </g>
        <g id="Ellipse_1" data-name="Ellipse 1" transform="translate(928 285)" fill="none" stroke="#3C3C3C" stroke-width="2">
        <ellipse cx="33.5" cy="33.21" rx="33.5" ry="33.21" stroke="none"/>
        <ellipse cx="33.5" cy="33.21" rx="32.5" ry="32.21" fill="none"/>
        </g>
        <ellipse id="Ellipse_1_copy_8" data-name="Ellipse 1 copy 8" cx="3.6" cy="3.57" rx="3.6" ry="3.57" transform="translate(958.26 347.86)" fill="#3C3C3C"/>
        <ellipse id="Ellipse_1_copy_9" data-name="Ellipse 1 copy 9" cx="3.6" cy="3.57" rx="3.6" ry="3.57" transform="translate(984.92 347.86)" fill="#3C3C3C"/>
        <ellipse id="Ellipse_1_copy_11" data-name="Ellipse 1 copy 11" cx="3.6" cy="3.57" rx="3.6" ry="3.57" transform="translate(929.44 347.86)" fill="#3C3C3C"/>
    </g>
</symbol>


</svg>
