<svg xmlns="http://www.w3.org/2000/svg" width="14.171" height="14.127" viewBox="0 0 14.171 14.127">
  <path id="Google" d="M977.915,277.007c0-1.6,1.7-3.263,4.129-3.263.264,0,.507-.006.758-.006a1.456,1.456,0,0,1-.6-1.087,1.767,1.767,0,0,1,.221-.811c-.133.009-.267.015-.4.015a3,3,0,0,1-3.158-3.146c0-1.715,1.769-3.272,3.889-3.272h4.179l-.933.977h-1.1a2.624,2.624,0,0,1,1.186,2.354,2.836,2.836,0,0,1-1.234,2.227c-.706.549-.839.779-.839,1.244,0,.4.842.995,1.229,1.283,1.35,1.008,1.624,1.643,1.624,2.9,0,1.575-1.7,3.139-4.47,3.139C979.965,279.563,977.915,278.579,977.915,277.007Zm1.579-.469c0,1.272,1.211,2.328,2.891,2.328,2.359,0,3.182-.993,3.182-2.263a1.939,1.939,0,0,0-.054-.447c-.185-.721-.919-1.115-1.831-1.746a3.591,3.591,0,0,0-1.086-.174h-.046C980.89,274.235,979.493,275.3,979.493,276.538Zm.941-7.855a2.728,2.728,0,0,0,2.39,2.537c1.126.033,1.774-.916,1.58-2.389s-1.157-2.684-2.284-2.719h-.048C980.972,266.111,980.241,267.229,980.435,268.682Zm8.757,1.748v-1.922h-1.927v-.959h1.927v-1.922h.963v1.922h1.93v.959h-1.93v1.922Z" transform="translate(-977.915 -265.436)" fill="#fff"/>
</svg>
