<svg>
  <symbol viewBox="0 0 56.531 56.531" id="icon1" xmlns="http://www.w3.org/2000/svg">  
  <g><path id="icon1" data-name="1" d="M548.266,1673.812l-2.953,2.953L529,1660.453a18.616,18.616,0,0,1-3.094,2.25,24.169,24.169,0,0,1-3.516,1.688,20.231,20.231,0,0,1-3.867,1.055,23.511,23.511,0,0,1-4.008.352,21.872,21.872,0,0,1-8.93-1.828,23.519,23.519,0,0,1-7.242-4.922,22.551,22.551,0,0,1-4.852-7.242,22.264,22.264,0,0,1-1.758-8.789,22.591,22.591,0,0,1,22.781-22.781,22.315,22.315,0,0,1,8.789,1.758,22.673,22.673,0,0,1,7.242,4.852,23.647,23.647,0,0,1,4.922,7.242,21.926,21.926,0,0,1,1.828,8.93,23.7,23.7,0,0,1-.352,4.008,20.476,20.476,0,0,1-1.055,3.867,24.5,24.5,0,0,1-1.687,3.516,18.665,18.665,0,0,1-2.25,3.094l16.313,16.312Zm-54.141-30.8a19.963,19.963,0,0,0,5.906,14.344,20.881,20.881,0,0,0,6.539,4.43,19.724,19.724,0,0,0,7.945,1.617,19.241,19.241,0,0,0,7.875-1.617,21.315,21.315,0,0,0,10.9-10.9,19.267,19.267,0,0,0,1.617-7.875,19.769,19.769,0,0,0-1.617-7.945,21.008,21.008,0,0,0-4.43-6.539,20.252,20.252,0,0,0-6.469-4.36,20.019,20.019,0,0,0-7.875-1.547,20.524,20.524,0,0,0-7.945,1.547,20.038,20.038,0,0,0-10.9,10.9,20.493,20.493,0,0,0-1.547,7.945Z" transform="translate(-491.734 -1620.234)" fill="#5474fd"/></g>
</symbol>


  <symbol viewBox="0 0 59.906 59.906" id="icon2" xmlns="http://www.w3.org/2000/svg">
  <g><path id="icon2" data-name="2" d="M900,1619.547a29.936,29.936,0,1,1-11.672,2.32,29.649,29.649,0,0,1,11.672-2.32Zm0,57.516a26.569,26.569,0,0,0,10.758-2.18,26.651,26.651,0,0,0,14.625-14.625,27.636,27.636,0,0,0,0-21.516,26.649,26.649,0,0,0-14.625-14.625,27.635,27.635,0,0,0-21.516,0,26.649,26.649,0,0,0-14.625,14.625,27.636,27.636,0,0,0,0,21.516,26.651,26.651,0,0,0,14.625,14.625,26.554,26.554,0,0,0,10.758,2.18Zm15.047-38.25a1.409,1.409,0,0,1,1.2-.562,1.835,1.835,0,0,1,1.336.562,2.169,2.169,0,0,1,.422,1.336,1.41,1.41,0,0,1-.562,1.2l-20.531,19.969a.656.656,0,0,1-.492.352,3.159,3.159,0,0,1-.633.07,3.83,3.83,0,0,1-.773-.07.649.649,0,0,1-.492-.352L886.5,1653.3a1.818,1.818,0,0,1-.562-1.336,1.949,1.949,0,0,1,1.758-1.758,1.835,1.835,0,0,1,1.336.562l6.75,6.75,19.266-18.7Z" transform="translate(-870.047 -1619.547)" fill="#ff6363"/></g>
</symbol>

  <symbol viewBox="0 0 61.313 58.781" id="icon3" xmlns="http://www.w3.org/2000/svg">
  <g><path id="icon3" data-name="3" d="M1310.586,1648.656a5.76,5.76,0,0,1-.281,1.828,5.031,5.031,0,0,1-.844,1.547,4.758,4.758,0,0,1-1.266,1.125,7.776,7.776,0,0,1-1.547.7,8.75,8.75,0,0,1,.7,1.477,5.146,5.146,0,0,1,.281,1.758,5.326,5.326,0,0,1-.281,1.688,7.836,7.836,0,0,1-.7,1.547,9.419,9.419,0,0,1-1.266,1.055,6.937,6.937,0,0,1-1.406.774,7.9,7.9,0,0,1,.7,1.547,5.33,5.33,0,0,1,.281,1.688,5.133,5.133,0,0,1-.281,1.758,8.6,8.6,0,0,1-.7,1.476,6.066,6.066,0,0,1-1.266,1.2,3.7,3.7,0,0,1-1.547.633,5.333,5.333,0,0,1,.844,1.476,5.15,5.15,0,0,1,.281,1.758,4.954,4.954,0,0,1-.422,1.969,5.313,5.313,0,0,1-1.125,1.688,7.38,7.38,0,0,1-1.828,1.125,5.3,5.3,0,0,1-2.109.422h-18.562a10.4,10.4,0,0,1-2.25-.281,17.14,17.14,0,0,1-2.672-.844,22.722,22.722,0,0,1-2.812-1.055q-1.407-.633-2.813-1.2-1.687-.7-3.3-1.406a6.935,6.935,0,0,0-2.32-.7h-12.8v-27.422l1.125-.141h10.969a8.925,8.925,0,0,0,2.32-.281,6.46,6.46,0,0,0,2.18-1.125,22.721,22.721,0,0,0,2.883-1.969q1.615-1.266,3.867-3.094a14.173,14.173,0,0,0,5.133-9.141q.771-5.484.773-6.328a3.333,3.333,0,0,1,.422-1.617,3.076,3.076,0,0,1,1.125-1.2,4.086,4.086,0,0,1,1.476-.773,5.591,5.591,0,0,1,1.477-.211,9.291,9.291,0,0,1,2.25.281,4.587,4.587,0,0,1,2.109,1.266,6.785,6.785,0,0,1,1.547,2.6,13.431,13.431,0,0,1,.563,4.289,28.833,28.833,0,0,1-.352,4.57,36.241,36.241,0,0,1-.914,4.149,23.052,23.052,0,0,1-1.055,3.586q-.633,1.618-1.055,2.742h19.125a6.11,6.11,0,0,1,2.18.352,6.3,6.3,0,0,1,1.758,1.055,4.64,4.64,0,0,1,1.055,1.617,5.682,5.682,0,0,1,.352,2.039Zm-5.344,2.953a3.593,3.593,0,0,0,1.266-.211,1.7,1.7,0,0,0,.844-.633,4.333,4.333,0,0,0,.7-.914,2.375,2.375,0,0,0,.281-1.2,2.7,2.7,0,0,0-.844-1.969,3.043,3.043,0,0,0-2.25-.844H1282.32l.844-1.687q3.935-9.7,3.938-15.609,0-4.641-1.547-5.414a6.071,6.071,0,0,0-2.531-.773,3.236,3.236,0,0,0-1.266.422,1.268,1.268,0,0,0-.844,1.125q0,.844-.141,2.813a23.363,23.363,0,0,1-.844,4.5,29.189,29.189,0,0,1-2.039,5.2,14.2,14.2,0,0,1-3.727,4.641q-2.393,1.971-4.008,3.3a25.117,25.117,0,0,1-3.024,2.18,12.445,12.445,0,0,1-2.812,1.266,10.226,10.226,0,0,1-2.953.422h-9.7v22.781h10.406a7.62,7.62,0,0,1,2.6.633q1.615.633,4.008,1.617,1.124.564,2.461,1.2a23.184,23.184,0,0,0,2.6,1.055q1.4.422,2.531.774a6.7,6.7,0,0,0,1.969.352H1296.8a2.777,2.777,0,0,0,1.266-.281,3.766,3.766,0,0,0,.984-.7,1.681,1.681,0,0,0,.633-.844,3.173,3.173,0,0,0,.211-1.125,3.036,3.036,0,0,0-.211-1.2,2.929,2.929,0,0,0-.633-.914,2.748,2.748,0,0,0-.984-.633,3.585,3.585,0,0,0-1.266-.211h-.281v-2.391h3.234a3.2,3.2,0,0,0,1.125-.211,2.745,2.745,0,0,0,.984-.633,9.451,9.451,0,0,0,.563-.984,2.39,2.39,0,0,0,0-2.25,2.155,2.155,0,0,0-1.547-1.547,2.514,2.514,0,0,0-1.125-.281h-.984v-2.39h3.516a3.2,3.2,0,0,0,1.125-.211,2.742,2.742,0,0,0,.984-.633,3.773,3.773,0,0,0,.7-.984,2.5,2.5,0,0,0,.281-1.125,2.8,2.8,0,0,0-.281-1.266,2.155,2.155,0,0,0-.7-.844,3.811,3.811,0,0,0-.984-.7,2.514,2.514,0,0,0-1.125-.281h-1.125v-2.391Z" transform="translate(-1249.273 -1620.109)" fill="#00a2ff"/><g>
</symbol>
</svg>
