<svg xmlns="http://www.w3.org/2000/svg" width="35.001" height="37" viewBox="0 0 35.001 37">
  <g id="Ellipse_1_copy_12" data-name="Ellipse 1 copy 12" transform="translate(-794 -4583)">
    <g id="Ellipse_1_copy_12-2" data-name="Ellipse 1 copy 12" transform="translate(794 4583)">
      <g id="Rectangle_1" data-name="Rectangle 1" fill="none">
        <path d="M32.74,35.867,17.688,6.8,2.636,35.867Z" stroke="none"/>
        <path d="M 31.50108909606934 35.11346054077148 L 17.68817138671875 8.436991691589355 L 3.87525463104248 35.11346054077148 L 31.50108909606934 35.11346054077148 M 32.74042129516602 35.86734771728516 L 2.635921478271484 35.86734771728516 L 17.68817138671875 6.797391414642334 L 32.74042129516602 35.86734771728516 Z" stroke="none" fill="#fff"/>
      </g>
      <g id="Ellipse_1" data-name="Ellipse 1" fill="none" stroke="#f6f7fc" stroke-width="0.754">
        <ellipse cx="17.5" cy="17.556" rx="17.5" ry="17.556" stroke="none"/>
        <ellipse cx="17.5" cy="17.556" rx="17.123" ry="17.179" fill="none"/>
      </g>
      <ellipse id="Ellipse_1_copy_8" data-name="Ellipse 1 copy 8" cx="1.882" cy="1.888" rx="1.882" ry="1.888" transform="translate(15.806 33.224)" fill="#fff"/>
      <ellipse id="Ellipse_1_copy_9" data-name="Ellipse 1 copy 9" cx="1.882" cy="1.888" rx="1.882" ry="1.888" transform="translate(29.731 33.224)" fill="#fff"/>
      <ellipse id="Ellipse_1_copy_11" data-name="Ellipse 1 copy 11" cx="1.882" cy="1.888" rx="1.882" ry="1.888" transform="translate(0.753 33.224)" fill="#fff"/>
    </g>
    <path id="Color_Overlay" data-name="Color Overlay" d="M823.889,4618.867H813.413a1.879,1.879,0,0,1-3.449,0h-11.6a1.886,1.886,0,1,1-.563-2.24l1.7-3.292a17.5,17.5,0,1,1,24.25-.242l1.628,3.146a1.953,1.953,0,0,1,.234-.014,1.887,1.887,0,1,1-1.724,2.642Z" fill="#3c3c3c"/>
  </g>
</svg>
