<svg xmlns="http://www.w3.org/2000/svg" xmlns:xlink="http://www.w3.org/1999/xlink" width="418" height="418" viewBox="0 0 418 418">
  <defs>
    <clipPath id="clip">
      <use xlink:href="#fill"/>
    </clipPath>
    <clipPath id="clip-2">
      <use xlink:href="#fill-2"/>
    </clipPath>
    <clipPath id="clip-3">
      <use xlink:href="#fill-3"/>
    </clipPath>
    <clipPath id="clip-4">
      <use xlink:href="#fill-4"/>
    </clipPath>
    <clipPath id="clip-5">
      <use xlink:href="#fill-5"/>
    </clipPath>
    <clipPath id="clip-6">
      <use xlink:href="#fill-6"/>
    </clipPath>
    <clipPath id="clip-7">
      <use xlink:href="#fill-7"/>
    </clipPath>
    <clipPath id="clip-8">
      <use xlink:href="#fill-8"/>
    </clipPath>
  </defs>
  <g id="Сгруппировать_1" data-name="Сгруппировать 1" transform="translate(-457 -367)">
    <g id="Group_1_copy" data-name="Group 1 copy">
      <g id="Rectangle_6" data-name="Rectangle 6" transform="translate(457 367.93)" fill="none" stroke="#fc0" stroke-width="4">
        <rect id="fill" width="1" height="100" stroke="none"/>
        <path d="M0,2h1M2,0v100M1,98h-1M-1,100v-100" fill="none" clip-path="url(#clip)"/>
      </g>
      <g id="Rectangle_7" data-name="Rectangle 7" transform="translate(457 367)" fill="none" stroke="#fc0" stroke-width="4">
        <rect id="fill-2" width="100" height="1" stroke="none"/>
        <path d="M0,-1h100M98,0v1M100,2h-100M2,1v-1" fill="none" clip-path="url(#clip-2)"/>
      </g>
    </g>
    <g id="Group_1_copy_3" data-name="Group 1 copy 3">
      <g id="Rectangle_6-2" data-name="Rectangle 6" transform="translate(874 367.94)" fill="none" stroke="#fc0" stroke-width="4">
        <rect id="fill-3" width="1" height="100.06" stroke="none"/>
        <path d="M0,2h1M2,0v100.05999755859375M1,98.05999755859375h-1M-1,100.05999755859375v-100.05999755859375" fill="none" clip-path="url(#clip-3)"/>
      </g>
      <g id="Rectangle_7-2" data-name="Rectangle 7" transform="translate(775 367)" fill="none" stroke="#fc0" stroke-width="4">
        <rect id="fill-4" width="100" height="1" stroke="none"/>
        <path d="M0,-1h100M98,0v1M100,2h-100M2,1v-1" fill="none" clip-path="url(#clip-4)"/>
      </g>
    </g>
    <g id="Group_1_copy_4" data-name="Group 1 copy 4">
      <g id="Rectangle_6-3" data-name="Rectangle 6" transform="translate(457 684.06)" fill="none" stroke="#fc0" stroke-width="4">
        <rect id="fill-5" width="1" height="100" stroke="none"/>
        <path d="M0,2h1M2,0v100M1,98h-1M-1,100v-100" fill="none" clip-path="url(#clip-5)"/>
      </g>
      <g id="Rectangle_7-3" data-name="Rectangle 7" transform="translate(457 784)" fill="none" stroke="#fc0" stroke-width="4">
        <rect id="fill-6" width="100" height="1" stroke="none"/>
        <path d="M0,-1h100M98,0v1M100,2h-100M2,1v-1" fill="none" clip-path="url(#clip-6)"/>
      </g>
    </g>
    <g id="Group_1_copy_5" data-name="Group 1 copy 5">
      <g id="Rectangle_6-4" data-name="Rectangle 6" transform="translate(874 684)" fill="none" stroke="#fc0" stroke-width="4">
        <rect id="fill-7" width="1" height="100.06" stroke="none"/>
        <path d="M0,2h1M2,0v100.05999755859375M1,98.05999755859375h-1M-1,100.05999755859375v-100.05999755859375" fill="none" clip-path="url(#clip-7)"/>
      </g>
      <g id="Rectangle_7-4" data-name="Rectangle 7" transform="translate(775 784)" fill="none" stroke="#fc0" stroke-width="4">
        <rect id="fill-8" width="100" height="1" stroke="none"/>
        <path d="M0,-1h100M98,0v1M100,2h-100M2,1v-1" fill="none" clip-path="url(#clip-8)"/>
      </g>
    </g>
  </g>
</svg>
