<?xml version="1.0" encoding="utf-8"?>
<!-- Generator: Adobe Illustrator 24.0.1, SVG Export Plug-In . SVG Version: 6.00 Build 0)  -->
<svg version="1.1" id="Layer_1" xmlns="http://www.w3.org/2000/svg" xmlns:xlink="http://www.w3.org/1999/xlink" x="0px" y="0px"
	 viewBox="0 0 4500 4500" style="enable-background:new 0 0 4500 4500;" xml:space="preserve">
<style type="text/css">
	.st0{fill:#F75719;}
	.st1{fill:#FFFFFF;}
</style>
<circle class="st0" cx="2281.45" cy="2143.27" r="1500"/>
<g>
	<polygon class="st1" points="3279.33,2575.61 2780.36,2859.51 2281.39,3143.27 1782.42,2859.51 1283.58,2575.61 1609.9,2389.97 
		1756.16,2473.24 2255.14,2757.01 2281.39,2771.99 2307.64,2757.01 2806.61,2473.24 2952.87,2389.97 	"/>
	<polygon class="st1" points="3279.33,2143.21 2952.87,2328.98 2926.09,2344.22 2899.3,2359.48 2780.36,2427.1 2281.39,2710.87 
		1782.42,2427.1 1663.61,2359.48 1636.82,2344.22 1610.04,2328.98 1283.58,2143.21 1609.9,1957.57 1756.16,2040.84 1936.37,2143.34 
		1963.15,2158.59 1989.94,2173.84 2255.14,2324.6 2281.39,2339.59 2307.64,2324.6 2572.84,2173.84 2599.63,2158.59 2626.41,2143.34 
		2806.61,2040.84 2952.87,1957.57 	"/>
	<polygon class="st1" points="3279.33,1710.8 2952.87,1896.57 2899.3,1927.07 2780.36,1994.69 2572.71,2112.84 2545.92,2127.95 
		2519.14,2143.34 2281.39,2278.46 2043.64,2143.34 2016.85,2128.09 1990.07,2112.84 1782.42,1994.69 1663.61,1927.07 
		1610.04,1896.57 1283.58,1710.8 1782.42,1427.03 2281.39,1143.27 	"/>
</g>
</svg>
