<?xml version="1.0" encoding="utf-8"?>
<!-- Generator: Adobe Illustrator 24.0.1, SVG Export Plug-In . SVG Version: 6.00 Build 0)  -->
<svg version="1.1" id="Layer_1" xmlns="http://www.w3.org/2000/svg" xmlns:xlink="http://www.w3.org/1999/xlink" x="0px" y="0px"
	 viewBox="0 0 4500 4500" style="enable-background:new 0 0 4500 4500;" xml:space="preserve">
<style type="text/css">
	.st0{fill:#F75719;}
	.st1{fill:#FFFFFF;}
</style>
<circle class="st0" cx="2281.45" cy="2143.27" r="1500"/>
<path class="st1" d="M2281.45,1143.27c-352.7,0-638.58,285.88-638.58,638.58c0,89.79,18.52,175.2,51.96,252.68l586.62,1108.74
	l586.62-1108.74c33.44-77.48,51.96-162.89,51.96-252.68C2920.04,1429.15,2634.1,1143.27,2281.45,1143.27z M2281.45,2273.27
	c-271.38,0-491.41-220.03-491.41-491.41c0-271.44,220.03-491.41,491.41-491.41c271.38,0,491.41,219.97,491.41,491.41
	C2772.86,2053.24,2552.83,2273.27,2281.45,2273.27z"/>
</svg>
