<?xml version="1.0" encoding="utf-8"?>
<!-- Generator: Adobe Illustrator 24.0.1, SVG Export Plug-In . SVG Version: 6.00 Build 0)  -->
<svg version="1.1" id="Layer_1" xmlns="http://www.w3.org/2000/svg" xmlns:xlink="http://www.w3.org/1999/xlink" x="0px" y="0px"
	 viewBox="0 0 4500 4500" style="enable-background:new 0 0 4500 4500;" xml:space="preserve">
<style type="text/css">
	.st0{fill:#F75719;}
	.st1{fill:#FFFFFF;}
</style>
<circle class="st0" cx="2281.45" cy="2143.27" r="1500"/>
<g>
	<path class="st1" d="M2026.57,2164.43l-723.29,585.9c-8.76,7.09-21.82,0.86-21.82-10.41V1566.2c0-11.28,13.09-17.51,21.84-10.39
		l723.29,587.82C2033.19,2148.99,2033.18,2159.07,2026.57,2164.43z"/>
	<path class="st1" d="M3281.45,1566.23v1173.66c0,11.28-13.08,17.52-21.85,10.42l-723.25-585.87c-6.62-5.36-6.63-15.45-0.02-20.82
		l723.25-587.79C3268.35,1548.7,3281.45,1554.94,3281.45,1566.23z"/>
	<path class="st1" d="M3224.4,1447.62c12.64,0,18.27,15.87,8.46,23.84l-869.91,706.98c-47.48,38.59-115.51,38.59-162.99,0
		l-869.91-706.98c-9.81-7.97-4.17-23.84,8.46-23.84H3224.4z"/>
	<path class="st1" d="M3201.23,2838.92H1361.68c-12.64,0-18.27-15.89-8.45-23.84l742.54-601.49c4.93-3.99,11.98-3.99,16.91,0.01
		l39.75,32.31c75.17,61.09,182.87,61.09,258.04,0l39.75-32.31c4.92-4,11.98-4.01,16.91-0.01l742.54,601.49
		C3219.5,2823.04,3213.87,2838.92,3201.23,2838.92z"/>
</g>
</svg>
