<?xml version="1.0" encoding="utf-8"?>
<!-- Generator: Adobe Illustrator 24.0.1, SVG Export Plug-In . SVG Version: 6.00 Build 0)  -->
<svg version="1.1" id="Layer_1" xmlns="http://www.w3.org/2000/svg" xmlns:xlink="http://www.w3.org/1999/xlink" x="0px" y="0px"
	 viewBox="0 0 4500 4500" style="enable-background:new 0 0 4500 4500;" xml:space="preserve">
<style type="text/css">
	.st0{fill:#F75719;}
	.st1{fill:#FFFFFF;}
</style>
<circle class="st0" cx="2281.45" cy="2143.27" r="1500"/>
<path class="st1" d="M2669.89,1143.27h-776.86c-66.74,0-120.84,54.1-120.84,120.84v1758.32c0,66.74,54.1,120.84,120.84,120.84
	h776.86c66.74,0,120.84-54.1,120.84-120.84V1264.11C2790.73,1197.37,2736.62,1143.27,2669.89,1143.27z M2157.61,1252.87
	c0-6.71,5.44-12.15,12.15-12.15h223.38c6.71,0,12.15,5.44,12.15,12.15v20.73c0,6.71-5.44,12.15-12.15,12.15h-223.38
	c-6.71,0-12.15-5.44-12.15-12.15V1252.87z M2281.45,3102.21c-44.99,0-81.46-36.47-81.46-81.46c0-44.99,36.47-81.46,81.46-81.46
	s81.46,36.47,81.46,81.46C2362.91,3065.74,2326.44,3102.21,2281.45,3102.21z M2740.4,2871.49c0,4.12-3.34,7.46-7.46,7.46h-902.96
	c-4.12,0-7.46-3.34-7.46-7.46V1357.03c0-4.12,3.34-7.46,7.46-7.46h902.96c4.12,0,7.46,3.34,7.46,7.46V2871.49z"/>
</svg>
