<?xml version="1.0" encoding="utf-8"?>
<!-- Generator: Adobe Illustrator 24.0.1, SVG Export Plug-In . SVG Version: 6.00 Build 0)  -->
<svg version="1.1" id="Layer_1" xmlns="http://www.w3.org/2000/svg" xmlns:xlink="http://www.w3.org/1999/xlink" x="0px" y="0px"
	 viewBox="0 0 4500 4500" style="enable-background:new 0 0 4500 4500;" xml:space="preserve">
<style type="text/css">
	.st0{fill:#F75719;}
	.st1{fill:#FFFFFF;}
</style>
<circle class="st0" cx="2281.45" cy="2143.27" r="1500"/>
<path class="st1" d="M3054.09,1610.16h-444.85v-44.93c0-69.78-27.18-135.4-76.52-184.74c-49.34-49.35-114.95-76.52-184.75-76.52
	h-153.09c-69.78,0-135.4,27.17-184.74,76.52c-49.34,49.34-76.52,114.95-76.52,184.74v44.93h-424.8
	c-125.58,0-227.37,101.79-227.37,227.37v917.67c0,125.58,101.79,227.38,227.37,227.38h1545.27c125.57,0,227.37-101.8,227.37-227.38
	v-917.67C3281.45,1711.95,3179.65,1610.16,3054.09,1610.16z M2482.78,1610.16h-422.69v-44.93c0-74.33,60.47-134.8,134.8-134.8
	h153.09c74.34,0,134.81,60.47,134.81,134.8V1610.16z"/>
<rect x="1582.05" y="1610.15" class="st0" width="155.22" height="1372.42"/>
<rect x="2825.64" y="1610.15" transform="matrix(-1 -1.224647e-16 1.224647e-16 -1 5806.5049 4592.7241)" class="st0" width="155.22" height="1372.42"/>
</svg>
