<svg xmlns="http://www.w3.org/2000/svg" width="22.074" height="29.99" viewBox="0 0 22.074 29.99">
  <path id="Tablet" d="M448.736,102.975a4.874,4.874,0,0,1-4.772-4.958V77.944a4.873,4.873,0,0,1,4.772-4.958h12.531a4.873,4.873,0,0,1,4.772,4.958V98.017a4.874,4.874,0,0,1-4.772,4.958ZM445.9,77.944V98.017a2.9,2.9,0,0,0,2.837,2.947h12.531a2.9,2.9,0,0,0,2.837-2.947V77.944A2.9,2.9,0,0,0,461.266,75H448.736A2.9,2.9,0,0,0,445.9,77.944ZM454.03,98.81a.971.971,0,1,1,.97,1.01A.99.99,0,0,1,454.03,98.81Zm0-20.38a1.006,1.006,0,0,1,0-2.01h1.935a1.006,1.006,0,0,1,0,2.01Z" transform="translate(-443.964 -72.986)" fill="#1275b9"/>
</svg>
