<svg xmlns="http://www.w3.org/2000/svg" width="14.18" height="14.127" viewBox="0 0 14.18 14.127">
  <path id="Dribble" d="M1031.425,268.592a7.092,7.092,0,0,0-.652-1.2,7.312,7.312,0,0,0-.866-1.045,7.23,7.23,0,0,0-1.048-.861,7.031,7.031,0,0,0-2.538-1.062,7.115,7.115,0,0,0-2.852,0,7.217,7.217,0,0,0-1.334.41,7.105,7.105,0,0,0-1.205.652,7.5,7.5,0,0,0-1.049.861,7.1,7.1,0,0,0-.863,1.045,7.229,7.229,0,0,0-.655,1.2,7.058,7.058,0,0,0,0,5.5,7.215,7.215,0,0,0,.655,1.2,7.016,7.016,0,0,0,.863,1.045,7.1,7.1,0,0,0,1.049.859,6.991,6.991,0,0,0,1.205.654,7.161,7.161,0,0,0,4.186.412,7.083,7.083,0,0,0,1.332-.412,6.961,6.961,0,0,0,1.206-.654,6.857,6.857,0,0,0,1.048-.859,7.225,7.225,0,0,0,.866-1.045,7.079,7.079,0,0,0,.652-1.2,7.044,7.044,0,0,0,0-5.5Zm-6.531-3.283a6.035,6.035,0,0,1,4,1.506A6.608,6.608,0,0,1,1025.73,269a30.84,30.84,0,0,0-2.263-3.519A6.132,6.132,0,0,1,1024.894,265.308Zm-1.449.176,0,0a.077.077,0,0,1-.018,0A.091.091,0,0,0,1023.444,265.484Zm-1.135.4a35.236,35.236,0,0,1,2.248,3.475,22.423,22.423,0,0,1-5.589.736A6.041,6.041,0,0,1,1022.31,265.887Zm-1.921,9.482s0,0,0,0S1020.39,275.371,1020.389,275.369Zm0,0a5.993,5.993,0,0,1-1.549-4.029c0-.062,0-.127.006-.189a22.275,22.275,0,0,0,6.215-.859c.174.338.34.682.493,1.025l-.239.07A9.577,9.577,0,0,0,1020.388,275.369Zm.785.729-.135-.106c.043.035.094.06.139.1Zm3.722,1.275a6.036,6.036,0,0,1-3.718-1.285,8.2,8.2,0,0,1,4.747-3.76l.04-.014a24.918,24.918,0,0,1,1.293,4.58A6.02,6.02,0,0,1,1024.895,277.373Zm3.382-1.029a26.031,26.031,0,0,0-1.177-4.309,8.768,8.768,0,0,1,3.771.264A6.027,6.027,0,0,1,1028.276,276.344Zm-1.547-5.26c-.042-.1-.085-.207-.131-.312-.127-.295-.26-.588-.4-.875a7.758,7.758,0,0,0,3.373-2.387,5.988,5.988,0,0,1,1.377,3.77A14.192,14.192,0,0,0,1026.729,271.084Z" transform="translate(-1017.805 -264.277)" fill="#fff"/>
</svg>
