<svg xmlns="http://www.w3.org/2000/svg" width="14.171" height="14.127" viewBox="0 0 14.171 14.127">
  <path id="Google" d="M0,11.57c0-1.6,1.7-3.263,4.129-3.263.264,0,.507-.006.758-.006a1.456,1.456,0,0,1-.6-1.087A1.767,1.767,0,0,1,4.508,6.4c-.133.009-.267.015-.4.015A3,3,0,0,1,.946,3.272C.946,1.557,2.715,0,4.835,0H9.014L8.08.977h-1.1A2.624,2.624,0,0,1,8.168,3.33,2.836,2.836,0,0,1,6.935,5.557C6.228,6.106,6.1,6.336,6.1,6.8c0,.4.842.995,1.229,1.283,1.35,1.008,1.624,1.643,1.624,2.9,0,1.575-1.7,3.139-4.47,3.139C2.05,14.127,0,13.143,0,11.57ZM1.579,11.1c0,1.272,1.211,2.328,2.891,2.328,2.359,0,3.182-.993,3.182-2.263a1.939,1.939,0,0,0-.054-.447C7.412,10,6.678,9.6,5.765,8.973A3.591,3.591,0,0,0,4.679,8.8H4.634C2.975,8.8,1.579,9.867,1.579,11.1ZM2.52,3.246A2.728,2.728,0,0,0,4.91,5.783c1.126.033,1.774-.916,1.58-2.389S5.333.711,4.206.676H4.157C3.057.675,2.326,1.793,2.52,3.246Zm8.757,1.748V3.073H9.35V2.113h1.927V.192h.963V2.113h1.93v.959H12.24V4.994Z" fill="#fff"/>
</svg>
