<svg xmlns="http://www.w3.org/2000/svg" width="14.179" height="11.479" viewBox="0 0 14.179 11.479">
  <path id="Tweter" d="M927.833,275.164a8.281,8.281,0,0,0,12.736-6.946c0-.125,0-.25-.01-.375a5.846,5.846,0,0,0,1.452-1.5,5.716,5.716,0,0,1-1.671.455,2.9,2.9,0,0,0,1.279-1.6,5.877,5.877,0,0,1-1.848.7,2.909,2.909,0,0,0-4.957,2.643,8.267,8.267,0,0,1-6-3.027,2.895,2.895,0,0,0,.9,3.869,2.887,2.887,0,0,1-1.318-.361v.035a2.9,2.9,0,0,0,2.334,2.842,2.842,2.842,0,0,1-.767.1,2.935,2.935,0,0,1-.547-.051,2.906,2.906,0,0,0,2.717,2.012,5.933,5.933,0,0,1-4.306,1.2Z" transform="translate(-927.833 -264.986)" fill="#fff"/>
</svg>
