<svg xmlns="http://www.w3.org/2000/svg" width="27.034" height="22.267" viewBox="0 0 27.034 22.267">
  <path id="Dashboard" d="M1084.8,97.164a1,1,0,0,1-.793-.393,13.518,13.518,0,1,1,21.682,0,1,1,0,0,1-.793.393Zm-1.466-8.578a11.74,11.74,0,0,0,1.975,6.561h19.08a11.792,11.792,0,0,0,1.975-6.586,11.515,11.515,0,1,0-23.029.025Zm9.215,3.341a2.959,2.959,0,0,1-.33-4.151c1.048-1.238,6.48-3.122,6.48-3.122s-.981,5.7-2.028,6.94a2.909,2.909,0,0,1-4.122.333Zm-6.639-4.135a8.939,8.939,0,1,1,17.877-.027,1,1,0,1,1-2,0,6.937,6.937,0,1,0-13.872.027,1,1,0,1,1-2,0Z" transform="translate(-1081.336 -74.897)" fill="#fff"/>
</svg>
