<svg height="52"  width="52" xmlns="http://www.w3.org/2000/svg">
   <symbol viewBox="-43 0 512 512" id="icon">
        <path d="m368 512h-309.332031c-32.363281 0-58.667969-26.304688-58.667969-58.667969v-394.664062c0-32.363281 26.304688-58.667969 58.667969-58.667969h309.332031c32.363281 0 58.667969 26.304688 58.667969 58.667969v394.664062c0 32.363281-26.304688 58.667969-58.667969 58.667969zm-309.332031-480c-14.699219 0-26.667969 11.96875-26.667969 26.667969v394.664062c0 14.699219 11.96875 26.667969 26.667969 26.667969h309.332031c14.699219 0 26.667969-11.96875 26.667969-26.667969v-394.664062c0-14.699219-11.96875-26.667969-26.667969-26.667969zm0 0"/>
        <path d="m346.667969 426.667969h-32c-20.589844 0-37.335938-16.746094-37.335938-37.335938v-53.332031c0-20.585938 16.746094-37.332031 37.335938-37.332031h32c8.832031 0 16 7.167969 16 16s-7.167969 16-16 16h-32c-2.945313 0-5.335938 2.386719-5.335938 5.332031v53.332031c0 2.945313 2.390625 5.335938 5.335938 5.335938h16v-6.230469c-6.230469-2.21875-10.667969-8.128906-10.667969-15.105469 0-8.832031 7.167969-16 16-16h10.667969c8.832031 0 16 7.167969 16 16v37.335938c0 8.832031-7.167969 16-16 16zm0 0"/>
        <path d="m213.332031 426.667969c-7.1875 0-13.480469-4.800781-15.421875-11.714844l-26.667968-96c-2.367188-8.511719 2.625-17.320313 11.136718-19.6875 8.449219-2.390625 17.324219 2.621094 19.691406 11.132813l11.261719 40.492187 11.242188-40.492187c2.347656-8.511719 11.179687-13.523438 19.691406-11.132813 8.511719 2.367187 13.503906 11.175781 11.136719 19.6875l-26.667969 96c-1.917969 6.914063-8.210937 11.714844-15.402344 11.714844zm0 0"/>
        <path d="m106.667969 426.667969h-26.667969c-8.832031 0-16-7.167969-16-16s7.167969-16 16-16h26.667969c5.3125 0 10.664062-2.753907 10.664062-8.898438 0-6.183593-6.675781-7.101562-10.664062-7.101562-24.726563 0-42.667969-16.683594-42.667969-39.660157 0-22.976562 18.347656-40.339843 42.667969-40.339843h26.664062c8.832031 0 16 7.167969 16 16s-7.167969 16-16 16h-26.664062c-1.773438 0-10.667969.402343-10.667969 8.339843 0 7.105469 8.171875 7.660157 10.667969 7.660157 24.722656 0 42.664062 16.445312 42.664062 39.101562 0 22.933594-18.730469 40.898438-42.664062 40.898438zm0 0"/>
    </symbol>
    <symbol viewBox="0 0 878.000000 1280.000000" id="icon2">
        <g transform="translate(0.000000,1280.000000) scale(0.100000,-0.100000)"
        fill="#000000" stroke="none">
        <path d="M3083 12758 c-32 -70 -107 -358 -179 -684 -34 -156 -42 -209 -34
        -219 22 -27 97 -48 147 -41 112 15 233 142 233 243 0 45 -42 316 -71 463 -24
        120 -66 260 -78 260 -4 0 -12 -10 -18 -22z"/>
        <path d="M3267 11896 c-40 -64 -122 -142 -180 -171 -65 -32 -144 -33 -221 -4
        -31 11 -60 18 -65 14 -37 -22 -101 -187 -101 -257 0 -69 22 -102 86 -134 51
        -25 71 -29 145 -29 78 0 91 3 162 38 190 94 315 308 283 481 -6 33 -58 106
        -75 106 -3 0 -18 -20 -34 -44z"/>
        <path d="M3311 11421 c-68 -92 -142 -157 -221 -195 -56 -27 -76 -31 -145 -31
        -65 0 -92 6 -145 28 -103 45 -94 47 -148 -36 -85 -130 -119 -295 -78 -375 47
        -91 215 -152 362 -131 186 26 374 165 467 347 25 48 50 107 57 132 19 70 15
        182 -9 234 -20 45 -62 96 -79 96 -5 0 -32 -31 -61 -69z"/>
        <path d="M3410 10868 c-61 -96 -157 -198 -238 -252 -184 -122 -372 -115 -546
        21 l-49 38 -43 -48 c-123 -136 -139 -326 -35 -420 99 -90 195 -122 356 -121
        108 0 129 3 215 32 137 47 231 104 326 197 86 84 113 133 135 249 14 73 11
        226 -5 281 -13 42 -50 95 -65 95 -3 0 -26 -32 -51 -72z"/>
        <path d="M3495 10304 c-59 -82 -191 -205 -273 -253 -237 -141 -513 -131 -763
        29 -25 17 -49 30 -53 30 -12 0 -85 -162 -101 -225 -21 -83 -20 -228 4 -303 26
        -83 50 -114 134 -166 149 -93 301 -128 459 -107 191 25 375 121 537 281 105
        103 159 177 198 273 47 113 41 268 -14 385 -24 52 -68 112 -81 112 -4 0 -25
        -26 -47 -56z"/>
        <path d="M3536 9484 c-167 -160 -446 -295 -671 -325 -173 -22 -318 4 -472 87
        l-83 44 -39 -35 c-112 -101 -179 -386 -118 -505 29 -58 67 -83 196 -124 150
        -49 262 -66 428 -66 280 0 537 79 783 240 114 75 178 139 213 211 82 166 49
        337 -89 476 -35 35 -67 63 -71 63 -5 -1 -39 -30 -77 -66z"/>
        <path d="M3683 8740 c-194 -185 -489 -335 -758 -386 -67 -12 -122 -15 -215
        -11 -183 8 -303 47 -453 149 -68 46 -81 45 -135 -18 -51 -57 -103 -157 -138
        -264 -24 -74 -27 -102 -28 -215 -1 -120 1 -134 24 -180 23 -44 35 -55 105 -92
        295 -154 677 -200 1015 -122 255 59 538 197 715 348 103 88 177 233 192 372
        14 139 -51 310 -164 429 -36 39 -68 70 -72 70 -3 -1 -43 -36 -88 -80z"/>
        <path d="M5930 8655 c-34 -36 -152 -115 -250 -168 -125 -67 -290 -136 -509
        -211 -275 -95 -377 -151 -497 -270 -105 -106 -173 -221 -219 -371 -15 -49 -31
        -94 -35 -98 -4 -4 -29 2 -56 13 -27 12 -64 25 -83 28 -30 7 -44 20 -89 87 -29
        44 -79 106 -110 137 l-56 57 -55 -53 c-118 -112 -322 -246 -497 -327 -207 -95
        -473 -166 -592 -156 -35 3 -80 0 -100 -5 -46 -13 -199 4 -304 33 -132 36 -287
        118 -398 209 -53 44 -62 42 -132 -19 l-47 -41 -76 30 c-117 46 -198 38 -240
        -26 -21 -32 -33 -22 -59 46 -48 126 -177 287 -301 375 -89 63 -169 100 -349
        162 -373 127 -605 238 -756 360 -30 24 -59 44 -64 44 -5 -1 -8 -70 -7 -155 2
        -140 -5 -227 -39 -511 -15 -120 -12 -223 10 -392 35 -262 90 -428 194 -587 70
        -106 146 -188 254 -274 173 -137 260 -175 412 -175 141 -1 230 29 360 122 61
        43 72 47 190 67 69 12 129 18 133 14 4 -4 -19 -39 -53 -79 -82 -98 -156 -210
        -199 -300 -31 -66 -35 -86 -36 -153 0 -68 3 -79 25 -103 34 -37 56 -44 184
        -60 61 -8 149 -25 195 -39 147 -45 212 -31 254 54 45 92 19 277 -68 497 -67
        166 -65 167 70 46 147 -132 194 -172 242 -199 23 -14 43 -30 43 -36 0 -5 -14
        -27 -31 -48 -40 -49 -49 -112 -24 -161 10 -19 59 -75 109 -124 51 -50 117
        -127 149 -172 91 -129 121 -149 212 -143 130 9 270 247 365 618 21 83 35 51
        70 -163 53 -320 106 -427 243 -491 97 -45 149 -28 231 74 43 53 81 86 150 130
        121 78 165 118 188 170 14 31 25 42 41 42 69 0 216 -25 310 -51 121 -35 165
        -34 204 3 93 86 78 281 -43 576 -19 45 -34 84 -34 87 0 21 46 -12 156 -111 70
        -63 146 -128 169 -144 82 -56 164 -76 244 -59 65 14 108 49 121 100 6 21 17
        39 24 39 23 0 180 -173 243 -267 164 -245 240 -497 230 -758 -6 -166 -38 -291
        -109 -435 -70 -142 -172 -247 -298 -309 -139 -68 -289 -88 -415 -56 -347 88
        -542 425 -411 711 71 156 270 263 463 251 202 -12 319 -138 311 -333 -4 -94
        -26 -137 -96 -183 -83 -56 -223 -66 -299 -21 -50 29 -60 17 -45 -60 15 -83 42
        -123 104 -154 75 -38 171 -37 253 3 172 81 279 312 246 532 -30 202 -224 445
        -421 525 -93 38 -240 45 -337 16 -189 -58 -345 -235 -389 -444 -54 -251 57
        -572 275 -801 273 -286 634 -333 1045 -137 248 118 477 331 604 561 161 293
        210 654 131 968 -11 45 -18 86 -14 89 22 22 135 -190 162 -305 15 -63 18 -119
        18 -298 0 -238 -8 -288 -62 -424 -65 -163 -135 -251 -483 -606 -516 -526 -584
        -619 -636 -875 -24 -122 -15 -328 21 -469 53 -206 151 -414 297 -632 76 -115
        221 -301 238 -307 5 -2 -7 32 -27 75 -98 211 -138 382 -138 583 1 166 19 252
        85 403 80 183 197 332 546 695 264 276 334 379 415 621 58 176 81 322 81 526
        0 191 -16 319 -62 491 -75 282 -202 522 -369 697 -94 98 -167 155 -274 213
        -45 25 -120 77 -167 115 -47 39 -113 86 -147 106 -75 41 -80 48 -57 74 25 27
        58 24 195 -21 218 -71 412 -178 569 -312 145 -124 245 -264 368 -514 197 -403
        270 -703 242 -999 -23 -255 -76 -435 -297 -1015 -397 -1041 -474 -1296 -503
        -1672 -40 -513 118 -1032 449 -1473 133 -177 342 -388 493 -499 l43 -31 -44
        55 c-297 372 -418 637 -438 961 -20 333 104 665 452 1209 244 382 304 479 380
        615 215 385 311 691 334 1067 42 662 -209 1389 -685 1983 -180 225 -454 475
        -692 632 -172 114 -408 221 -556 254 -32 7 -60 19 -63 27 -3 7 13 52 35 100
        50 108 84 217 108 347 26 142 26 553 0 745 -14 102 -17 172 -13 288 2 83 1
        152 -2 152 -4 0 -18 -11 -31 -25z m-4337 -1679 c6 -16 -2 -28 -14 -20 -12 7
        -11 34 0 34 5 0 11 -6 14 -14z m2517 -347 c0 -6 -28 -45 -62 -88 -86 -106
        -172 -242 -198 -312 -12 -32 -26 -59 -30 -59 -4 0 -37 20 -73 44 -76 51 -184
        95 -330 134 -56 15 -102 32 -102 37 0 12 63 30 210 61 192 39 304 81 372 138
        19 16 54 29 104 39 95 19 109 19 109 6z"/>
        <path d="M795 4220 c4 -8 21 -34 37 -57 15 -23 28 -49 28 -57 0 -22 -87 -64
        -151 -72 -51 -7 -52 -8 -24 -16 38 -10 97 -2 154 23 60 26 72 24 111 -16 29
        -29 31 -36 20 -50 -23 -28 -90 -56 -147 -62 -43 -5 -51 -8 -38 -16 28 -15 118
        -1 184 29 58 25 62 26 86 10 31 -20 32 -36 3 -63 -30 -27 -63 -43 -118 -59
        l-45 -14 62 3 c49 3 72 10 113 35 28 18 58 32 66 32 19 0 94 -38 94 -48 -1
        -23 -49 -60 -117 -88 -51 -21 -54 -24 -27 -24 52 0 112 27 190 84 16 13 124
        -13 131 -31 8 -21 -43 -69 -101 -95 -46 -20 -49 -23 -24 -26 37 -4 103 27 158
        74 l44 39 126 2 c196 2 389 52 592 154 109 54 260 141 255 146 -2 1 -78 -22
        -169 -52 -91 -30 -223 -67 -294 -82 -119 -26 -146 -28 -349 -27 -206 0 -226 2
        -318 27 -170 46 -327 130 -473 254 -38 32 -64 51 -59 43z"/>
        <path d="M5134 4199 c-48 -51 -164 -135 -244 -177 -172 -92 -347 -132 -574
        -132 -220 0 -437 42 -690 132 -60 21 -111 37 -113 34 -7 -7 176 -112 270 -156
        208 -97 391 -142 584 -144 l123 -2 37 -36 c47 -45 112 -78 153 -78 36 0 32 15
        -6 24 -36 9 -110 61 -118 82 -8 22 2 28 69 44 53 13 55 12 90 -14 52 -40 115
        -66 160 -65 l40 0 -54 20 c-62 22 -121 63 -121 85 0 16 56 54 81 54 9 0 46
        -16 83 -35 53 -28 78 -35 119 -34 l52 1 -45 12 c-62 18 -127 52 -139 75 -8 14
        -5 23 15 42 23 21 27 22 57 10 119 -49 184 -62 215 -42 9 5 -5 10 -38 14 -56
        7 -127 41 -144 70 -9 15 -5 24 26 52 l36 34 59 -24 c72 -30 131 -39 163 -26
        l25 10 -26 0 c-44 1 -128 31 -156 55 l-27 24 42 61 c46 65 44 80 -4 30z"/>
        <path d="M7910 1704 c-141 -24 -225 -57 -325 -128 -118 -85 -202 -198 -251
        -341 -25 -71 -28 -94 -28 -210 -1 -110 3 -140 22 -194 60 -166 163 -265 330
        -318 166 -52 323 -17 423 95 82 91 108 230 60 322 -21 40 -89 116 -96 108 -2
        -2 5 -28 15 -58 25 -71 25 -123 0 -201 -25 -84 -67 -139 -132 -175 -46 -25
        -63 -29 -133 -29 -114 0 -175 24 -246 94 -144 144 -136 360 21 591 45 67 123
        141 176 168 166 85 414 74 609 -26 224 -114 343 -339 302 -573 -40 -235 -198
        -463 -402 -582 -198 -117 -499 -163 -795 -123 -52 7 -97 12 -99 10 -13 -11
        197 -76 322 -99 45 -8 104 -20 130 -25 75 -15 152 -11 279 14 356 72 577 319
        668 745 11 52 20 113 20 136 0 53 -34 213 -61 285 -85 230 -310 431 -555 494
        -62 16 -210 28 -254 20z"/>
        </g>
    </symbol>
</svg>